<svg width="24" height="24" viewBox="0 0 24 24" fill="none" xmlns="http://www.w3.org/2000/svg">
<path fill-rule="evenodd" clip-rule="evenodd" d="M12.364 1.85022e-08C12.0657 -3.97528e-05 11.771 0.0640385 11.4996 0.187892C11.2283 0.311746 10.9868 0.492481 10.7914 0.717848C10.596 0.943216 10.4514 1.20795 10.3673 1.49411C10.2832 1.78026 10.2615 2.08116 10.3039 2.3764C8.79589 2.82163 7.47237 3.74274 6.531 5.00216C5.58962 6.26158 5.0809 7.79173 5.08082 9.36409V17.6877H4.04036C3.76442 17.6877 3.49977 17.7973 3.30465 17.9925C3.10953 18.1876 2.99991 18.4522 2.99991 18.7282C2.99991 19.0041 3.10953 19.2688 3.30465 19.4639C3.49977 19.659 3.76442 19.7686 4.04036 19.7686H20.6876C20.9636 19.7686 21.2282 19.659 21.4234 19.4639C21.6185 19.2688 21.7281 19.0041 21.7281 18.7282C21.7281 18.4522 21.6185 18.1876 21.4234 17.9925C21.2282 17.7973 20.9636 17.6877 20.6876 17.6877H19.6472V9.36409C19.6471 7.79173 19.1384 6.26158 18.197 5.00216C17.2556 3.74274 15.9321 2.82163 14.4241 2.3764C14.4665 2.08116 14.4448 1.78026 14.3607 1.49411C14.2766 1.20795 14.132 0.943216 13.9366 0.717848C13.7412 0.492481 13.4997 0.311746 13.2284 0.187892C12.957 0.0640385 12.6623 -3.97528e-05 12.364 1.85022e-08ZM14.4449 21.8495C14.4449 22.1255 14.3353 22.3901 14.1402 22.5853C13.945 22.7804 13.6804 22.89 13.4045 22.89H11.3235C11.0476 22.89 10.783 22.7804 10.5878 22.5853C10.3927 22.3901 10.2831 22.1255 10.2831 21.8495C10.2831 21.5736 10.3927 21.309 10.5878 21.1138C10.783 20.9187 11.0476 20.8091 11.3235 20.8091H13.4045C13.6804 20.8091 13.945 20.9187 14.1402 21.1138C14.3353 21.309 14.4449 21.5736 14.4449 21.8495Z" fill="#A0AAB8"/>
</svg>
