<svg width="25" height="24" viewBox="0 0 25 24" fill="none" xmlns="http://www.w3.org/2000/svg">
<g clip-path="url(#clip0_5_1857)">
<path d="M19.7046 22.6666H4.65123C4.5024 22.6675 4.35485 22.6391 4.21701 22.5829C4.07917 22.5268 3.95374 22.444 3.84788 22.3394C3.74203 22.2348 3.65781 22.1103 3.60005 21.9732C3.54228 21.836 3.5121 21.6888 3.51123 21.54V4.45997C3.51519 4.29505 3.55407 4.13285 3.62532 3.98407C3.69657 3.83529 3.79856 3.7033 3.92456 3.59683C4.05056 3.49036 4.19771 3.41182 4.3563 3.36639C4.51488 3.32097 4.6813 3.30969 4.84456 3.3333H6.1779V4.66664H4.84456V21.3333H19.5112V4.66664H18.1779V3.3333H19.6779C19.829 3.32886 19.9794 3.35466 20.1203 3.40921C20.2612 3.46375 20.3898 3.54593 20.4985 3.6509C20.6072 3.75588 20.6939 3.88154 20.7533 4.02048C20.8127 4.15943 20.8437 4.30885 20.8446 4.45997V21.54C20.8437 21.6888 20.8135 21.836 20.7557 21.9732C20.698 22.1103 20.6138 22.2348 20.5079 22.3394C20.4021 22.444 20.2766 22.5268 20.1388 22.5829C20.0009 22.6391 19.8534 22.6675 19.7046 22.6666Z" fill="black"/>
<path d="M11.2847 17.1734L7.71134 13.6C7.60296 13.4717 7.547 13.3072 7.55465 13.1395C7.56229 12.9717 7.63298 12.813 7.75257 12.6951C7.87217 12.5772 8.03186 12.5087 8.19972 12.5035C8.36759 12.4982 8.53125 12.5565 8.658 12.6667L11.2847 15.2934L17.0447 9.53335C17.1722 9.42413 17.3363 9.36706 17.504 9.37354C17.6718 9.38002 17.831 9.44958 17.9497 9.56831C18.0684 9.68704 18.138 9.8462 18.1445 10.014C18.151 10.1818 18.0939 10.3458 17.9847 10.4734L11.2847 17.1734Z" fill="black"/>
<path d="M17.5114 7.33335H6.84473V4.88669C6.84648 4.47526 7.0107 4.08118 7.30163 3.79025C7.59255 3.49933 7.98663 3.33511 8.39806 3.33335H9.59139C9.73826 2.75974 10.0719 2.25133 10.5396 1.88826C11.0073 1.52519 11.5826 1.32812 12.1747 1.32812C12.7668 1.32812 13.3421 1.52519 13.8099 1.88826C14.2776 2.25133 14.6112 2.75974 14.7581 3.33335H15.9514C16.364 3.33335 16.7598 3.49679 17.0521 3.78791C17.3445 4.07902 17.5096 4.47411 17.5114 4.88669V7.33335ZM8.17806 6.00002H16.1781V4.88669C16.1781 4.82834 16.1549 4.77238 16.1136 4.73112C16.0724 4.68987 16.0164 4.66669 15.9581 4.66669H13.5114V4.00002C13.5114 3.6464 13.3709 3.30726 13.1209 3.05721C12.8708 2.80716 12.5317 2.66669 12.1781 2.66669C11.8244 2.66669 11.4853 2.80716 11.2353 3.05721C10.9852 3.30726 10.8447 3.6464 10.8447 4.00002V4.66669H8.39806C8.36917 4.66669 8.34056 4.67238 8.31387 4.68343C8.28718 4.69449 8.26293 4.71069 8.2425 4.73112C8.22207 4.75155 8.20586 4.7758 8.19481 4.8025C8.18375 4.82919 8.17806 4.8578 8.17806 4.88669V6.00002Z" fill="black"/>
</g>
<defs>
<clipPath id="clip0_5_1857">
<rect width="24" height="24" fill="white" transform="translate(0.177979)"/>
</clipPath>
</defs>
</svg>
