<svg width="24" height="24" viewBox="0 0 24 24" fill="none" xmlns="http://www.w3.org/2000/svg">
<path d="M12.474 2.60413C7.18773 2.60413 2.88 6.91185 2.88 12.1982C2.88 17.4845 7.18773 21.7922 12.474 21.7922C17.7604 21.7922 22.0681 17.4845 22.0681 12.1982C22.0681 6.91185 17.7604 2.60413 12.474 2.60413ZM16.6475 15.6232C16.5131 15.8535 16.2733 15.9782 16.0238 15.9782C15.8991 15.9782 15.7744 15.9494 15.6593 15.8727L12.6851 14.0978C11.9464 13.6565 11.3995 12.6875 11.3995 11.8336V7.90004C11.3995 7.50668 11.7257 7.18048 12.1191 7.18048C12.5124 7.18048 12.8386 7.50668 12.8386 7.90004V11.8336C12.8386 12.179 13.1264 12.6875 13.4239 12.8602L16.398 14.6351C16.7434 14.8365 16.8585 15.2779 16.6475 15.6232Z" fill="#A0AAB8"/>
</svg>
