<svg width="21" height="20" viewBox="0 0 21 20" fill="none" xmlns="http://www.w3.org/2000/svg">
<path d="M10.375 18C12.4967 18 14.5316 17.1571 16.0319 15.6569C17.5321 14.1566 18.375 12.1217 18.375 10C18.375 7.87827 17.5321 5.84344 16.0319 4.34315C14.5316 2.84285 12.4967 2 10.375 2C8.25327 2 6.21844 2.84285 4.71815 4.34315C3.21785 5.84344 2.375 7.87827 2.375 10C2.375 12.1217 3.21785 14.1566 4.71815 15.6569C6.21844 17.1571 8.25327 18 10.375 18ZM10.375 0C11.6882 0 12.9886 0.258658 14.2018 0.761205C15.4151 1.26375 16.5175 2.00035 17.4461 2.92893C18.3747 3.85752 19.1112 4.95991 19.6138 6.17317C20.1163 7.38642 20.375 8.68678 20.375 10C20.375 12.6522 19.3214 15.1957 17.4461 17.0711C15.5707 18.9464 13.0272 20 10.375 20C4.845 20 0.375 15.5 0.375 10C0.375 7.34784 1.42857 4.8043 3.30393 2.92893C5.1793 1.05357 7.72284 0 10.375 0ZM10.875 5V10.25L15.375 12.92L14.625 14.15L9.375 11V5H10.875Z" fill="black"/>
</svg>
