<svg width="24" height="24" viewBox="0 0 24 24" fill="none" xmlns="http://www.w3.org/2000/svg">
<path d="M17.6959 12.5148L16.5254 11.3443C16.2472 11.1044 16.0841 10.7495 16.0745 10.3561C16.0553 9.92438 16.228 9.49265 16.5446 9.17604L17.6959 8.02476C18.6936 7.02698 19.0678 6.06758 18.7512 5.30965C18.4442 4.56131 17.4944 4.14877 16.0937 4.14877H6.06789V3.32368C6.06789 2.93032 5.74169 2.60413 5.34834 2.60413C4.95498 2.60413 4.62878 2.93032 4.62878 3.32368V21.0727C4.62878 21.466 4.95498 21.7922 5.34834 21.7922C5.74169 21.7922 6.06789 21.466 6.06789 21.0727V16.3908H16.0937C17.4752 16.3908 18.4058 15.9686 18.7224 15.2107C19.039 14.4528 18.6745 13.503 17.6959 12.5148Z" fill="#A0AAB8"/>
</svg>
