<svg width="19" height="19" viewBox="0 0 19 19" fill="none" xmlns="http://www.w3.org/2000/svg">
<path d="M17.3758 10.1149C17.3758 9.46738 17.3222 8.99488 17.2061 8.50488H9.6615V11.4273H14.09C14.0008 12.1536 13.5186 13.2474 12.4472 13.9823L12.4322 14.0802L14.8176 15.8912L14.9829 15.9074C16.5007 14.5336 17.3758 12.5124 17.3758 10.1149Z" fill="#4285F4"/>
<path d="M9.66098 17.815C11.8306 17.815 13.652 17.115 14.9824 15.9075L12.4467 13.9824C11.7681 14.4462 10.8574 14.7699 9.66098 14.7699C7.53601 14.7699 5.73246 13.3962 5.08954 11.4974L4.9953 11.5053L2.51486 13.3866L2.48242 13.4749C3.80383 16.0474 6.51811 17.815 9.66098 17.815Z" fill="#34A853"/>
<path d="M5.09004 11.4974C4.9204 11.0074 4.82223 10.4824 4.82223 9.93991C4.82223 9.39738 4.9204 8.8724 5.08112 8.38241L5.07662 8.27805L2.56509 6.36658L2.48291 6.40488C1.9383 7.47239 1.62579 8.67117 1.62579 9.93991C1.62579 11.2087 1.9383 12.4074 2.48291 13.4749L5.09004 11.4974Z" fill="#FBBC05"/>
<path d="M9.66103 5.10992C11.1699 5.10992 12.1878 5.74867 12.7682 6.28245L15.036 4.11244C13.6432 2.84369 11.8306 2.06494 9.66103 2.06494C6.51814 2.06494 3.80384 3.83243 2.48242 6.40491L5.08063 8.38243C5.73248 6.48369 7.53604 5.10992 9.66103 5.10992Z" fill="#EB4335"/>
</svg>
