<svg width="29" height="29" viewBox="0 0 29 29" fill="none" xmlns="http://www.w3.org/2000/svg">
<path d="M21.7068 10.1803L11.8518 5.25281C5.23188 1.93711 2.51485 4.65414 5.83055 11.274L6.83217 13.2773C7.11999 13.8644 7.11999 14.5437 6.83217 15.1308L5.83055 17.1226C2.51485 23.7424 5.22037 26.4595 11.8518 23.1438L21.7068 18.2163C26.1277 16.0058 26.1277 12.3908 21.7068 10.1803ZM17.9881 15.0618H11.7712C11.2992 15.0618 10.9077 14.6703 10.9077 14.1983C10.9077 13.7263 11.2992 13.3348 11.7712 13.3348H17.9881C18.4601 13.3348 18.8516 13.7263 18.8516 14.1983C18.8516 14.6703 18.4601 15.0618 17.9881 15.0618Z" fill="#EB5E00"/>
</svg>
